# xmcd CD database file
#
# Track frame offsets:
#	150
#	28295
#	47498
#	75553
#	98853
#	125441
#	153554
#	187788
#	206837
#	227903
#	247183
#	273587
#	301039
#
# Disc length: 4337 seconds
#
# Revision: 1
# Processed by: cddbd v1.5.2PL0 Copyright (c) Steve Scherf et al.
# Submitted via: CDex 1.78
#
DISCID=ad10ef0d
DTITLE=Audio Logic - Totalmente Chillout 1
DYEAR=2005
DGENRE=New Age
TTITLE0=Harry's Game
TTITLE1=Porcelain
TTITLE2=Lines in Time
TTITLE3=Whow It's Time
TTITLE4=Bombay Bound
TTITLE5=Close to Me
TTITLE6=Summer Breeze
TTITLE7=Don't Panic
TTITLE8=Juice Breeze
TTITLE9=Voices From Atlantis
TTITLE10=Singles
TTITLE11=Forever Love
TTITLE12=Children
EXTD=YEAR: 2005
EXTT0=
EXTT1=
EXTT2=
EXTT3=
EXTT4=
EXTT5=
EXTT6=
EXTT7=
EXTT8=
EXTT9=
EXTT10=
EXTT11=
EXTT12=
PLAYORDER=
